<?xml version="1.0" encoding="UTF-8" standalone="no" ?><!DOCTYPE svg PUBLIC "-//W3C//DTD SVG 1.1//EN" "http://www.w3.org/Graphics/SVG/1.1/DTD/svg11.dtd">
<svg xmlns="http://www.w3.org/2000/svg" xmlns:xlink="http://www.w3.org/1999/xlink" version="1.1" width="186.844" height="166" style="background-color: white" xml:space="preserve"><desc>Created with Fabric.js 1.6.0-rc.1</desc><defs></defs><path d="M 55.09157049673858 67 Q 55.09157049673858 67 55.59157049673858 67 Q 56.09157049673858 67 56.339312594079274 67 Q 56.58705469141997 67 57.08479678876066 67 Q 57.582538886101354 67 58.080280983442044 67 Q 58.578023080782735 67 59.07576517812343 67 Q 59.573507275464124 67 61.564475664826894 68 Q 63.555444054189664 69 66.54189663823382 70 Q 69.52834922227797 71 72.51480180632213 72.5 Q 75.50125439036628 74 78.48770697441043 74.5 Q 81.47415955845459 75 83.96287004515804 75.5 Q 86.45158053186151 76 88.44254892122427 76 Q 90.43351731058705 76 92.9222277972905 76.5 Q 95.41093828399397 77 97.40190667335673 78.5 Q 99.39287506271951 80 99.8906171600602 80.5 Q 100.38835925740091 81 101.38384345208229 81 Q 102.37932764676367 81 103.37481184144505 81 Q 104.37029603612645 81 105.36578023080783 81.5 L 106.36126442548921 82" style="stroke: rgb(0, 0, 0); stroke-width: 1; stroke-dasharray: none; stroke-linecap: round; stroke-linejoin: round; stroke-miterlimit: 10; fill: none; fill-rule: nonzero; opacity: 1;" transform="translate(80.73 74.5) translate(-80.7264174611139, -74.5) " stroke-linecap="round" />
    <path d="M 30.204465629703964 20 Q 30.204465629703964 20 30.704465629703964 20 L 31.204465629703964 20" style="stroke: rgb(0, 0, 0); stroke-width: 1; stroke-dasharray: none; stroke-linecap: round; stroke-linejoin: round; stroke-miterlimit: 10; fill: none; fill-rule: nonzero; opacity: 1;" transform="translate(30.7 20) translate(-30.704465629703964, -20) " stroke-linecap="round" />
    <path d="M 72.01480180632213 115 Q 72.01480180632213 115 72.51480180632213 115 Q 73.01480180632213 115 75.25351229302558 114 Q 77.49222277972905 113 81.97190165579528 111 Q 86.45158053186151 109 91.92674360260912 106.5 Q 97.40190667335675 104 103.87255393878576 101 Q 110.34320120421475 98 116.31610637230307 94 Q 122.28901154039137 90 127.26643251379829 87 Q 132.24385348720523 84 135.72804816859008 82 Q 139.2122428499749 80 140.20772704465628 78.5 Q 141.2032112393377 77 143.19417962870045 74.5 Q 145.18514801806322 72 145.6828901154039 71 Q 146.1806322127446 70 146.1806322127446 69.5 Q 146.1806322127446 69 146.1806322127446 68.5 Q 146.1806322127446 68 147.17611640742598 67 Q 148.17160060210736 66 148.17160060210736 65 Q 148.17160060210736 64 148.17160060210736 63.5 Q 148.17160060210736 63 148.17160060210736 62.5 Q 148.17160060210736 62 147.17611640742598 60.5 Q 146.1806322127446 59 144.18966382338184 57.5 Q 142.19869543401907 56 140.70546914199699 54 Q 139.2122428499749 52 136.72353236327143 50 Q 134.234821876568 48 132.7415955845459 46.5 Q 131.24836929252382 45 129.25740090316106 44 Q 127.26643251379829 43 125.7732062217762 41.5 Q 124.27997992975413 40 121.79126944305068 39 Q 119.30255895634721 38 118.80481685900652 37.5 Q 118.30707476166583 37 117.80933266432514 37 Q 117.31159056698445 37 116.81384846964374 37 Q 116.31610637230305 37 115.32062217762167 37 Q 114.32513798294029 37 114.32513798294029 37 Q 114.32513798294029 37 113.8273958855996 37 Q 113.32965378825891 37 112.83191169091822 37 Q 112.33416959357751 37 111.33868539889613 37 Q 110.34320120421475 37 109.84545910687406 37 Q 109.34771700953337 37 108.84997491219266 37 Q 108.35223281485197 37 107.85449071751128 37 Q 107.35674862017059 37 105.36578023080781 38 Q 103.37481184144505 39 102.37932764676367 39.5 Q 101.38384345208229 40 99.8906171600602 40.5 Q 98.39739086803813 41 96.40642247867535 42.5 Q 94.41545408931259 44 93.41996989463121 44.5 Q 92.42448569994983 45 90.43351731058706 46.5 Q 88.44254892122429 48 86.94932262920221 49 Q 85.45609633718013 50 82.96738585047666 52 Q 80.4786753637732 54 77.49222277972905 56.5 Q 74.50577019568489 59 69.52834922227797 62.5 Q 64.55092824887105 66 63.555444054189664 66.5 Q 62.559959859508275 67 61.066733567486196 68 Q 59.573507275464124 69 56.587054691419965 72 Q 53.60060210737581 75 52.605117912694425 76 Q 51.60963371801304 77 49.61866532865027 78.5 Q 47.6276969392875 80 46.63221274460612 81 Q 45.63672854992473 82 45.13898645258404 83.5 Q 44.64124435524335 85 43.14801806322127 86.5 Q 41.65479177119919 88 41.1570496738585 89 Q 40.65930757651781 90 40.16156547917712 92 Q 39.66382338183643 94 39.66382338183643 95.5 Q 39.66382338183643 97 39.66382338183643 99.5 Q 39.66382338183643 102 39.66382338183643 106 Q 39.66382338183643 110 41.15704967385851 113.5 Q 42.65027596588058 117 48.125439036628194 122.5 Q 53.60060210737581 128 58.57802308078274 132 Q 63.555444054189664 136 68.53286502759659 138.5 Q 73.51028600100351 141 76.49673858504767 142 Q 79.48319116909182 143 81.97190165579528 144 Q 84.46061214249875 145 86.94932262920221 145.5 Q 89.43803311590567 146 91.92674360260912 146.5 Q 94.41545408931259 147 97.40190667335675 147 Q 100.38835925740091 147 104.86803813346714 147 Q 109.34771700953337 147 113.32965378825891 147 Q 117.31159056698445 147 121.29352734570998 147 Q 125.27546412443552 147 126.27094831911691 147 Q 127.26643251379829 147 128.75965880582038 147 Q 130.25288509784244 147 131.74611138986452 146 Q 133.2393376818866 145 135.23030607124937 144.5 Q 137.22127446061214 144 139.21224284997493 143.5 Q 141.2032112393377 143 143.19417962870045 141.5 Q 145.18514801806322 140 146.6783743100853 138.5 Q 148.17160060210736 137 149.66482689412945 135 Q 151.15805318615153 133 151.65579528349224 128 Q 152.15353738083292 123 153.1490215755143 116 Q 154.14450577019568 109 154.14450577019568 102.5 Q 154.14450577019568 96 154.14450577019568 91.5 Q 154.14450577019568 87 153.1490215755143 84 Q 152.15353738083292 81 152.15353738083292 80.5 Q 152.15353738083292 80 151.15805318615153 79 Q 150.16256899147015 78 149.66482689412948 77 Q 149.16708479678877 76 148.66934269944807 75.5 Q 148.17160060210736 75 147.67385850476666 75 Q 147.17611640742598 75 146.1806322127446 74.5 Q 145.18514801806322 74 144.68740592072254 74 Q 144.18966382338184 74 142.19869543401904 74 Q 140.20772704465628 74 137.22127446061214 74 Q 134.234821876568 74 128.26191670847967 74 Q 122.28901154039137 74 119.30255895634721 74 Q 116.31610637230305 74 112.83191169091822 74 Q 109.34771700953337 74 104.86803813346714 74 Q 100.38835925740091 74 96.90416457601606 74 Q 93.41996989463121 74 91.42900150526845 74 Q 89.43803311590567 74 87.44706472654289 74 Q 85.45609633718013 74 83.96287004515804 74 Q 82.46964375313597 74 81.47415955845459 74.5 Q 80.4786753637732 75 79.98093326643252 75 Q 79.48319116909182 75 78.98544907175113 75.5 Q 78.48770697441043 76 77.98996487706974 76.5 Q 77.49222277972905 77 76.99448068238836 77.5 Q 76.49673858504767 78 76.49673858504767 78 Q 76.49673858504767 78 75.99899648770698 79 Q 75.50125439036628 80 75.50125439036628 80.5 Q 75.50125439036628 81 75.50125439036628 81.5 Q 75.50125439036628 82 75.50125439036628 82.5 Q 75.50125439036628 83 75.50125439036628 84.5 Q 75.50125439036628 86 75.50125439036628 86.5 Q 75.50125439036628 87 75.50125439036628 89 Q 75.50125439036628 91 75.50125439036628 93.5 Q 75.50125439036628 96 81.4741595584546 102 Q 87.4470647265429 108 94.9131961866533 114.5 Q 102.37932764676367 121 111.83642749623682 127.5 Q 121.29352734570998 134 130.25288509784244 137.5 Q 139.2122428499749 141 143.69192172604113 143 Q 148.17160060210736 145 151.1580531861515 146 Q 154.14450577019568 147 156.63321625689915 147.5 Q 159.12192674360261 148 161.11289513296538 148.5 Q 163.10386352232814 149 163.60160561966882 149 Q 164.09934771700952 149 164.59708981435023 149.5 L 165.0948319116909 150" style="stroke: Yellow; stroke-width: 13; stroke-dasharray: none; stroke-linecap: round; stroke-linejoin: round; stroke-miterlimit: 10; fill: none; fill-rule: nonzero; opacity: 1;" transform="translate(102.38 93.5) translate(-102.37932764676367, -93.5) " stroke-linecap="round" />
    <path d="M 44.14124435524335 37 Q 44.14124435524335 37 44.64124435524335 37 Q 45.14124435524335 37 44.89124435524335 37.5 Q 44.64124435524335 38 44.64124435524335 40 Q 44.64124435524335 42 44.143502257902654 43.5 Q 43.64576016056196 45 43.64576016056196 46.5 Q 43.64576016056196 48 43.64576016056196 49.5 Q 43.64576016056196 51 43.14801806322127 52.5 Q 42.65027596588058 54 42.65027596588058 54.5 Q 42.65027596588058 55 42.65027596588058 56.5 Q 42.65027596588058 58 42.65027596588058 58.5 Q 42.65027596588058 59 42.65027596588058 60.5 Q 42.65027596588058 62 42.15253386853989 62.5 Q 41.65479177119919 63 41.65479177119919 63.5 Q 41.65479177119919 64 41.65479177119919 64.5 Q 41.65479177119919 65 41.65479177119919 65.5 L 41.65479177119919 66" style="stroke: Red; stroke-width: 13; stroke-dasharray: none; stroke-linecap: round; stroke-linejoin: round; stroke-miterlimit: 10; fill: none; fill-rule: nonzero; opacity: 1;" transform="translate(43.36 51.5) translate(-43.35512484440782, -51.5) " stroke-linecap="round" />
</svg>